#N canvas 255 394 1400 483 10;
#X declare -lib mrpeach;
#X declare -lib cyclone;
#X obj 328 -480 import mrpeach;
#X obj 324 -446 udpreceive 4559;
#X obj 324 -414 unpackOSC;
#X obj 324 -352 unpack i i;
#X floatatom 302 -322 5 0 0 0 - - -;
#X obj 324 -385 routeOSC /play_this /play;
#X obj 397 -354 change;
#X obj 397 -329 sel 0 1;
#X msg 433 -303 0.1 100;
#X text 217 -239 change frequency;
#X text 217 -249 incoming numbers;
#X msg 386 -303 0 1000;
#X obj 568 -136 +~;
#X obj 318 -178 osc~ 0;
#X obj 360 -184 *~;
#X obj 374 -212 line~;
#X obj 426 -480 import cyclone;
#X obj 403 -37 hip~ 5;
#X obj 547 -100 delwrite~ tdel 1000;
#X obj 553 -211 delread~ tdel 100;
#X obj 745 -209 dsp~;
#X obj 745 -241 tgl 15 0 empty empty empty 17 7 0 10 -262144 -1 -1
1 1;
#X obj 396 0 dac~ 1 2;
#X obj 744 -294 loadbang;
#X obj 744 -266 delay 1000;
#X obj 172 -355 print;
#X obj 398 -65 lop~ 3000;
#X obj 108 -207 int;
#X obj 82 -293 t i b b i;
#X obj 56 -252 int;
#X obj 78 -181 abs;
#X floatatom 78 -156 5 0 0 0 - - -;
#X obj 78 -207 - 0;
#X obj 50 -108 tgl 15 0 empty empty empty 17 7 0 10 -262144 -1 -1 1
1;
#X obj 78 -109 t b i;
#X obj 23 -205 sel 1 0;
#X obj 321 -208 line;
#X obj 463 -180 *~ 0.7;
#X obj 398 -124 *~;
#X obj 454 -209 osc~ 8.5;
#X obj 360 -157 *~ 0.95;
#X obj 78 -133 < 60;
#X obj 547 -177 *~ 0.65;
#X msg 321 -234 \$1 48;
#X connect 1 0 2 0;
#X connect 2 0 5 0;
#X connect 2 0 25 0;
#X connect 3 0 4 0;
#X connect 4 0 43 0;
#X connect 5 0 3 0;
#X connect 5 1 6 0;
#X connect 6 0 7 0;
#X connect 7 0 11 0;
#X connect 7 1 8 0;
#X connect 8 0 15 0;
#X connect 11 0 15 0;
#X connect 13 0 14 0;
#X connect 14 0 40 0;
#X connect 15 0 14 1;
#X connect 17 0 22 0;
#X connect 17 0 22 1;
#X connect 19 0 42 0;
#X connect 21 0 20 0;
#X connect 23 0 24 0;
#X connect 24 0 21 0;
#X connect 26 0 17 0;
#X connect 27 0 32 0;
#X connect 28 0 27 1;
#X connect 28 0 29 1;
#X connect 28 2 27 0;
#X connect 28 3 32 1;
#X connect 29 0 43 0;
#X connect 30 0 31 0;
#X connect 31 0 41 0;
#X connect 32 0 30 0;
#X connect 33 0 35 0;
#X connect 34 1 33 0;
#X connect 35 0 29 0;
#X connect 36 0 13 0;
#X connect 37 0 38 1;
#X connect 38 0 12 0;
#X connect 38 0 18 0;
#X connect 39 0 37 0;
#X connect 40 0 38 0;
#X connect 41 0 34 0;
#X connect 42 0 18 0;
#X connect 42 0 26 0;
#X connect 43 0 36 0;
#X coords 0 483 1 482 85 60 0;
