#N canvas 248 97 1400 752 10;
#X declare -lib mrpeach;
#X declare -lib cyclone;
#X obj 328 -211 import mrpeach;
#X obj 324 -177 udpreceive 4559;
#X obj 324 -145 unpackOSC;
#X obj 324 -83 unpack i i;
#X floatatom 302 -53 5 0 0 0 - - -;
#X obj 324 -116 routeOSC /play_this /play;
#X obj 397 -85 change;
#X obj 397 -60 sel 0 1;
#X msg 433 -34 0.1 1000;
#X text 191 19 change frequency;
#X msg 386 -34 0 1000;
#X obj 301 18 osc~ 0;
#X obj 360 100 *~;
#X obj 374 57 line~;
#X obj 426 -211 import cyclone;
#X obj 361 165 hip~ 5;
#X obj 636 60 dsp~;
#X obj 636 28 tgl 15 0 empty empty empty 17 7 0 10 -262144 -1 -1 1
1;
#X obj 354 202 dac~ 1 2;
#X obj 635 -25 loadbang;
#X obj 635 3 delay 1000;
#X obj 280 -145 print;
#X obj 360 139 lop~ 3000;
#X obj 301 -5 line;
#X obj 360 112 *~ 0.95;
#X msg 301 -31 \$1 48;
#X text 734 -22 Turns audio processing on \, 1 second after pactch
starts;
#X text 426 138 Low pass filter;
#X text 158 167 Hi pass filter (you may not want these although they
are not particularly strong~);
#X text 189 -52 incoming numbers;
#X text 423 -177 SET PORT HERE;
#X connect 1 0 2 0;
#X connect 2 0 5 0;
#X connect 2 0 21 0;
#X connect 3 0 4 0;
#X connect 4 0 25 0;
#X connect 5 0 3 0;
#X connect 5 1 6 0;
#X connect 6 0 7 0;
#X connect 7 0 10 0;
#X connect 7 1 8 0;
#X connect 8 0 13 0;
#X connect 10 0 13 0;
#X connect 11 0 12 0;
#X connect 12 0 24 0;
#X connect 13 0 12 1;
#X connect 15 0 18 0;
#X connect 15 0 18 1;
#X connect 17 0 16 0;
#X connect 19 0 20 0;
#X connect 20 0 17 0;
#X connect 22 0 15 0;
#X connect 23 0 11 0;
#X connect 24 0 22 0;
#X connect 25 0 23 0;
#X coords 0 752 1 751 85 60 0;
